<?xml version="1.0" encoding="utf-8"?>
<!-- Generator: Adobe Illustrator 15.1.0, SVG Export Plug-In . SVG Version: 6.00 Build 0)  -->
<!DOCTYPE svg PUBLIC "-//W3C//DTD SVG 1.1//EN" "http://www.w3.org/Graphics/SVG/1.1/DTD/svg11.dtd">
<svg version="1.1" id="レイヤー_1" xmlns="http://www.w3.org/2000/svg" xmlns:xlink="http://www.w3.org/1999/xlink" x="0px"
	 y="0px" width="1024px" height="1017.781px" viewBox="0 0 1024 1017.781" enable-background="new 0 0 1024 1017.781"
	 xml:space="preserve">
<g>
	<g>
		<g>
			<defs>
				<rect id="SVGID_1_" x="0" y="0.002" width="1024" height="1017.779"/>
			</defs>
			<clipPath id="SVGID_2_">
				<use xlink:href="#SVGID_1_"  overflow="visible"/>
			</clipPath>
			<path clip-path="url(#SVGID_2_)" fill="#51A253" d="M512,0.002c-282.771,0-512,229.23-512,512
				c0,255.555,187.229,467.369,432,505.777V660.003H302v-148h130v-112.8c0-128.32,76.438-199.2,193.39-199.2
				c56.018,0,114.61,10,114.61,10v126h-64.563c-63.602,0-83.437,39.467-83.437,79.957v96.043h142l-22.7,148H592v357.775
				c244.769-38.406,432-250.224,432-505.775C1024,229.232,794.77,0.002,512,0.002"/>
		</g>
	</g>
</g>
</svg>
