<?xml version="1.0" encoding="utf-8"?>
<!-- Generator: Adobe Illustrator 15.1.0, SVG Export Plug-In . SVG Version: 6.00 Build 0)  -->
<!DOCTYPE svg PUBLIC "-//W3C//DTD SVG 1.1//EN" "http://www.w3.org/Graphics/SVG/1.1/DTD/svg11.dtd">
<svg version="1.1" id="レイヤー_1" xmlns="http://www.w3.org/2000/svg" xmlns:xlink="http://www.w3.org/1999/xlink" x="0px"
	 y="0px" width="504px" height="504px" viewBox="0 0 504 504" enable-background="new 0 0 504 504" xml:space="preserve">
<circle fill="#51A253" cx="252" cy="252" r="251.5"/>
<g>
	<g>
		<g>
			<g>
				<defs>
					<rect id="SVGID_1_" x="100.768" y="100.916" width="302.304" height="302.268"/>
				</defs>
				<clipPath id="SVGID_2_">
					<use xlink:href="#SVGID_1_"  overflow="visible"/>
				</clipPath>
				<path clip-path="url(#SVGID_2_)" fill="#FFFFFF" d="M251.921,128.15c40.358,0,45.139,0.154,61.077,0.881
					c14.738,0.672,22.74,3.134,28.066,5.204c7.057,2.742,12.091,6.018,17.381,11.307c5.289,5.289,8.564,10.324,11.308,17.38
					c2.069,5.326,4.532,13.329,5.204,28.067c0.728,15.938,0.882,20.719,0.882,61.079c0,40.359-0.154,45.139-0.882,61.079
					c-0.672,14.736-3.135,22.74-5.204,28.066c-2.742,7.055-6.019,12.09-11.308,17.379s-10.324,8.564-17.381,11.309
					c-5.326,2.068-13.33,4.531-28.066,5.203c-15.936,0.728-20.714,0.883-61.077,0.883s-45.143-0.155-61.079-0.883
					c-14.737-0.672-22.741-3.135-28.067-5.203c-7.055-2.741-12.091-6.018-17.379-11.309c-5.29-5.289-8.564-10.324-11.307-17.379
					c-2.07-5.326-4.533-13.33-5.205-28.066c-0.729-15.938-0.881-20.72-0.881-61.079c0-40.36,0.154-45.141,0.881-61.079
					c0.672-14.738,3.135-22.741,5.205-28.067c2.741-7.056,6.017-12.091,11.307-17.38c5.288-5.29,10.324-8.565,17.379-11.307
					c5.326-2.07,13.33-4.532,28.067-5.204C206.78,128.304,211.561,128.15,251.921,128.15 M251.921,100.916
					c-41.051,0-46.198,0.174-62.32,0.909c-16.087,0.734-27.076,3.29-36.689,7.026c-9.939,3.863-18.368,9.031-26.771,17.434
					c-8.404,8.404-13.572,16.833-17.435,26.773c-3.737,9.614-6.292,20.602-7.026,36.69c-0.735,16.122-0.909,21.27-0.909,62.32
					c0,41.05,0.174,46.198,0.909,62.319c0.734,16.088,3.29,27.077,7.026,36.69c3.862,9.938,9.029,18.368,17.435,26.772
					c8.403,8.401,16.833,13.57,26.771,17.436c9.613,3.736,20.603,6.29,36.689,7.024c16.122,0.735,21.271,0.909,62.32,0.909
					s46.197-0.174,62.318-0.909c16.088-0.734,27.076-3.288,36.69-7.024c9.938-3.863,18.369-9.033,26.771-17.436
					c8.403-8.404,13.571-16.834,17.436-26.772c3.735-9.613,6.291-20.603,7.024-36.69c0.736-16.121,0.91-21.269,0.91-62.319
					c0-41.051-0.174-46.198-0.91-62.32c-0.733-16.088-3.289-27.076-7.024-36.69c-3.863-9.939-9.031-18.369-17.436-26.773
					c-8.402-8.403-16.833-13.571-26.771-17.433c-9.614-3.737-20.604-6.292-36.69-7.026
					C298.117,101.089,292.971,100.916,251.921,100.916z"/>
			</g>
		</g>
	</g>
</g>
<path fill="#FFFFFF" d="M251.921,174.449c-42.868,0-77.619,34.751-77.619,77.619s34.751,77.618,77.619,77.618
	c42.867,0,77.617-34.75,77.617-77.618C329.537,209.2,294.787,174.449,251.921,174.449 M251.921,302.451
	c-27.827,0-50.385-22.557-50.385-50.383c0-27.826,22.559-50.384,50.385-50.384s50.384,22.558,50.384,50.384
	C302.305,279.895,279.746,302.451,251.921,302.451z"/>
<path fill="#FFFFFF" d="M350.743,171.382c0,10.018-8.121,18.138-18.139,18.138c-10.017,0-18.138-8.12-18.138-18.138
	c0-10.018,8.121-18.139,18.138-18.139C342.622,153.244,350.743,161.365,350.743,171.382"/>
</svg>
